<?xml version="1.0" encoding="utf-8"?>

<svg version="1.1" id="Icons" xmlns="http://www.w3.org/2000/svg" xmlns:xlink="http://www.w3.org/1999/xlink" 
	viewBox="0 0 32 32" xml:space="preserve">
<style type="text/css">
	.st0{fill:none;stroke:#000000;stroke-width:2;stroke-linecap:round;stroke-linejoin:round;stroke-miterlimit:10;}
</style>
<g>
	<path fill="#ee6730" d="M14,16c0,0.7,0.4,1.4,1,1.7v-3.4C14.4,14.6,14,15.3,14,16z"/>
	<path fill="#ee6730" d="M26,16c0,2.8,2.2,5,5,5h1V11h-1C28.2,11,26,13.2,26,16z"/>
	<path fill="#ee6730" d="M18,16c0-0.7-0.4-1.4-1-1.7v3.4C17.6,17.4,18,16.7,18,16z"/>
	<path fill="#ee6730" d="M24,16c0-3.9,3.1-7,7-7h1c0-1.7-1.3-3-3-3H17v6.1c1.7,0.4,3,2,3,3.9s-1.3,3.4-3,3.9V26h12c1.7,0,3-1.3,3-3h-1
		C27.1,23,24,19.9,24,16z"/>
	<path fill="#ee6730" d="M6,16c0-2.8-2.2-5-5-5H0v10h1C3.8,21,6,18.8,6,16z"/>
	<path fill="#ee6730" d="M15,19.9c-1.7-0.4-3-2-3-3.9s1.3-3.4,3-3.9V6H3C1.3,6,0,7.3,0,9h1c3.9,0,7,3.1,7,7s-3.1,7-7,7H0c0,1.7,1.3,3,3,3h12V19.9z"
		/>
</g>
</svg>